<?xml version="1.0" standalone="no"?><!DOCTYPE svg PUBLIC "-//W3C//DTD SVG 1.1//EN" "http://www.w3.org/Graphics/SVG/1.1/DTD/svg11.dtd"><svg t="1759739703788" class="icon" viewBox="0 0 1024 1024" version="1.1" xmlns="http://www.w3.org/2000/svg" p-id="6315" width="32" height="32" xmlns:xlink="http://www.w3.org/1999/xlink"><path d="M378.042567 467.353151l89.333608 0L467.376175 645.934408 288.623002 645.934408 288.623002 467.353151c5.058203-119.429043 134.086881-134.042879 134.086881-134.042879l44.665269 44.623313C467.375152 377.933585 378.739439 387.355165 378.042567 467.353151zM556.446793 472.151433c0 0.785899 0 1.482771-0.088004 2.356674C556.446793 473.808166 556.446793 472.937332 556.446793 472.151433zM556.591079 468.118584c-0.032746 0.851391-0.088004 2.332115-0.144286 4.03285C556.523541 470.713688 556.533774 469.700615 556.591079 468.118584zM288.361035 474.508108C287.66314 491.956501 288.099069 482.664881 288.361035 474.508108L288.361035 474.508108zM556.603359 467.813638c0.011256-0.288572 0.01842-0.460488 0.01842-0.460488C556.613592 467.514833 556.609499 467.662189 556.603359 467.813638zM735.375975 377.933585l-44.667316-44.623313c0 0-129.026632 14.613836-134.086881 134.042879L556.621778 645.934408l178.75522 0L735.376998 467.353151l-89.333608 0C646.740262 387.355165 735.375975 377.933585 735.375975 377.933585zM958.70846 244.020666l0 535.956621c0 98.623181-80.000032 178.709171-178.75522 178.709171L243.954663 958.686459c-98.579179 0-178.665169-80.08599-178.665169-178.709171L65.289494 244.020666c0-98.755188 80.08599-178.709171 178.665169-178.709171l535.998577 0C878.708428 65.311495 958.70846 145.265478 958.70846 244.020666zM869.374852 288.643979c0-73.979922-60.021002-134.042879-133.998877-134.042879L288.623002 154.6011c-73.979922 0-133.912919 60.062957-133.912919 134.042879l0 446.709995c0 73.979922 59.932997 133.912919 133.912919 133.912919l446.752973 0c73.977875 0 133.998877-59.932997 133.998877-133.912919L869.374852 288.643979zM556.358789 474.508108C556.011888 482.664881 555.661917 491.956501 556.358789 474.508108L556.358789 474.508108z" p-id="6316" fill="#515151"></path></svg>