<?xml version="1.0" standalone="no"?><!DOCTYPE svg PUBLIC "-//W3C//DTD SVG 1.1//EN" "http://www.w3.org/Graphics/SVG/1.1/DTD/svg11.dtd"><svg t="1759728828705" class="icon" viewBox="0 0 1024 1024" version="1.1" xmlns="http://www.w3.org/2000/svg" p-id="12780" width="32" height="32" xmlns:xlink="http://www.w3.org/1999/xlink"><path d="M896 528c0-0.288-0.032-0.528-0.048-0.784a43.744 43.744 0 0 0-0.208-4.128l-0.128-0.752a43.056 43.056 0 0 0-0.624-4.032v-0.08a47.76 47.76 0 0 0-13.44-24.496L514.016 142.144A47.84 47.84 0 0 0 480 128l-0.128 0.016v-0.128H176V128a48 48 0 0 0-48 48h-0.112v304.784h0.208a47.68 47.68 0 0 0 16.368 35.136l-0.176 0.192 400 368 0.096-0.08c6.32 5.568 14.064 9.472 22.688 11.088 0.336 0.08 0.72 0.128 1.072 0.176A43.584 43.584 0 0 0 576 896c14.656 0 27.744-6.576 36.544-16.944l0.016 0.032 272-320-0.016-0.032A47.68 47.68 0 0 0 896 528zM256 320a64 64 0 1 1 0-128 64 64 0 0 1 0 128z" fill="#515151" p-id="12781"></path></svg>