<?xml version="1.0" standalone="no"?><!DOCTYPE svg PUBLIC "-//W3C//DTD SVG 1.1//EN" "http://www.w3.org/Graphics/SVG/1.1/DTD/svg11.dtd"><svg t="1759728000048" class="icon" viewBox="0 0 1024 1024" version="1.1" xmlns="http://www.w3.org/2000/svg" p-id="8528" width="32" height="32" xmlns:xlink="http://www.w3.org/1999/xlink"><path d="M674.816 256.08192a11.53024 11.53024 0 0 0-8.27392-3.39968 11.50976 11.50976 0 0 0-8.25344 3.39968l-74.0352 74.09664 109.64992 109.71136 74.07616-74.09664a11.40736 11.40736 0 0 0 3.39968-8.27392 11.59168 11.59168 0 0 0-3.39968-8.2944l-93.16352-93.14304z" p-id="8529" fill="#515151"></path><path d="M512 0C229.23264 0 0 229.23264 0 512s229.23264 512 512 512 512-229.23264 512-512S794.76736 0 512 0z m289.75104 399.64672L411.70944 789.68832c-3.6864 3.6864-8.4992 6.08256-13.66016 6.79936l-166.13376 22.528a23.8592 23.8592 0 0 1-20.11136-6.84032 23.79776 23.79776 0 0 1-6.79936-20.11136l22.528-166.0928c0.7168-5.16096 3.11296-9.95328 6.79936-13.68064l390.20544-390.0416A58.79808 58.79808 0 0 1 666.624 204.8c15.872 0 30.8224 6.16448 42.06592 17.408l93.16352 93.22496c11.264 11.264 17.42848 26.2144 17.38752 42.14784a59.04384 59.04384 0 0 1-17.48992 42.06592z" p-id="8530" fill="#515151"></path><path d="M273.85856 640.36864l-17.22368 126.91456 126.95552-17.2032 276.41856-276.41856-109.71136-109.71136z" p-id="8531" fill="#515151"></path></svg>